<svg width="1440" height="635" viewBox="0 0 1440 635" fill="none" xmlns="http://www.w3.org/2000/svg">
<g opacity="0.05">
<path d="M16.1342 532.827C14.849 532.827 13.8116 533.865 13.8116 535.15C13.8116 536.436 14.849 537.473 16.1342 537.473H28.4129C29.698 537.473 30.7355 536.436 30.7355 535.15V298.946C30.7355 297.66 29.698 296.622 28.4129 296.622H16.1342C14.849 296.622 13.8116 297.66 13.8116 298.946C13.8116 300.231 14.849 301.269 16.1342 301.269H26.0903V532.827H16.1342Z" fill="#38B000"/>
<path d="M54.5806 270.417H16.1342C14.849 270.417 13.8116 271.455 13.8116 272.74C13.8116 274.026 14.849 275.063 16.1342 275.063H52.258V404.015C52.258 405.3 53.2955 406.338 54.5806 406.338H159.577C160.862 406.338 161.899 405.3 161.899 404.015V167.81C161.899 166.525 160.862 165.487 159.577 165.487H16.1342C14.849 165.487 13.8116 166.525 13.8116 167.81C13.8116 169.096 14.849 170.134 16.1342 170.134H157.27V401.692H56.9032V272.74C56.9032 271.455 55.8658 270.417 54.5806 270.417Z" fill="#38B000"/>
<path d="M159.592 621.34C160.877 621.34 161.915 620.302 161.915 619.017V561.417C161.915 560.132 160.877 559.094 159.592 559.094H16.1342C14.849 559.094 13.8116 560.132 13.8116 561.417C13.8116 562.703 14.849 563.741 16.1342 563.741H157.27V619.001C157.27 620.302 158.307 621.34 159.592 621.34Z" fill="#38B000"/>
<path d="M972.913 275.079H1077.82C1079.1 275.079 1080.14 274.041 1080.14 272.756V36.6132C1080.14 35.3277 1079.1 34.29 1077.82 34.29H841.657C840.372 34.29 839.334 35.3277 839.334 36.6132V141.466C839.334 142.751 840.372 143.789 841.657 143.789H970.575V272.74C970.591 274.026 971.628 275.079 972.913 275.079ZM843.995 139.127V38.9364H1075.49V270.417H975.236V141.466C975.236 140.18 974.199 139.142 972.913 139.142L843.995 139.127Z" fill="#38B000"/>
<path d="M841.657 406.354H946.653C947.938 406.354 948.975 405.316 948.975 404.03V167.81C948.975 166.525 947.938 165.487 946.653 165.487H710.493C709.208 165.487 708.17 166.525 708.17 167.81V272.74C708.17 274.026 709.208 275.063 710.493 275.063H839.334V404.015C839.334 405.316 840.372 406.354 841.657 406.354ZM712.815 270.417V170.134H944.346V401.692H844.01V272.74C844.01 271.455 842.973 270.417 841.688 270.417H712.815Z" fill="#38B000"/>
<path d="M843.995 5.7924C843.995 4.50692 842.957 3.46924 841.672 3.46924C840.387 3.46924 839.35 4.50692 839.35 5.7924V10.2684C839.35 11.5539 840.387 12.5915 841.672 12.5915H946.668C947.954 12.5915 948.991 11.5539 948.991 10.2684V5.7924C948.991 4.50692 947.954 3.46924 946.668 3.46924C945.383 3.46924 944.346 4.50692 944.346 5.7924V7.94521H844.01L843.995 5.7924Z" fill="#38B000"/>
<path d="M946.668 621.34C947.954 621.34 948.991 620.302 948.991 619.017V561.417C948.991 560.132 947.954 559.094 946.668 559.094H710.493C709.208 559.094 708.17 560.132 708.17 561.417V619.017C708.17 620.302 709.208 621.34 710.493 621.34C711.778 621.34 712.815 620.302 712.815 619.017V563.756H944.346V619.017C944.33 620.302 945.383 621.34 946.668 621.34Z" fill="#38B000"/>
<path d="M1235.23 406.354H1340.14C1341.43 406.354 1342.45 405.316 1342.45 404.03V167.81C1342.45 166.525 1341.43 165.487 1340.14 165.487H1104.08C1102.79 165.487 1101.75 166.525 1101.75 167.81V272.74C1101.75 274.026 1102.79 275.063 1104.08 275.063H1232.9V404.015C1232.9 405.316 1233.94 406.354 1235.23 406.354ZM1106.4 270.417V170.134H1337.84V401.692H1237.55V272.74C1237.55 271.455 1236.51 270.417 1235.23 270.417H1106.4Z" fill="#38B000"/>
<path d="M1428.48 301.269C1429.77 301.269 1430.8 300.231 1430.8 298.946C1430.8 297.66 1429.77 296.622 1428.48 296.622H1366.41C1365.12 296.622 1364.1 297.66 1364.1 298.946V404.03C1364.1 405.316 1365.12 406.354 1366.41 406.354H1428.48C1429.77 406.354 1430.8 405.316 1430.8 404.03C1430.8 402.745 1429.77 401.707 1428.48 401.707H1368.73V301.284L1428.48 301.269Z" fill="#38B000"/>
<path d="M1340.16 621.34C1341.45 621.34 1342.47 620.302 1342.47 619.017V561.417C1342.47 560.132 1341.45 559.094 1340.16 559.094H1104.08C1102.79 559.094 1101.75 560.132 1101.75 561.417V619.017C1101.75 620.302 1102.79 621.34 1104.08 621.34C1105.36 621.34 1106.4 620.302 1106.4 619.017V563.756H1337.84V619.017C1337.84 620.302 1338.87 621.34 1340.16 621.34Z" fill="#38B000"/>
<path d="M1235.23 3.46924C1233.94 3.46924 1232.9 4.50692 1232.9 5.7924V10.2684C1232.9 11.5539 1233.94 12.5915 1235.23 12.5915H1340.14C1341.43 12.5915 1342.45 11.5539 1342.45 10.2684V5.7924C1342.45 4.50692 1341.43 3.46924 1340.14 3.46924C1338.86 3.46924 1337.84 4.50692 1337.84 5.7924V7.94521H1237.55V5.7924C1237.56 4.50692 1236.51 3.46924 1235.23 3.46924Z" fill="#38B000"/>
<path d="M1428.48 7.94521H1368.73V5.7924C1368.73 4.50692 1367.71 3.46924 1366.42 3.46924C1365.14 3.46924 1364.11 4.50692 1364.11 5.7924V10.2684C1364.11 11.5539 1365.14 12.5915 1366.42 12.5915H1428.5C1429.78 12.5915 1430.82 11.5539 1430.82 10.2684C1430.82 8.98288 1429.77 7.94521 1428.48 7.94521Z" fill="#38B000"/>
<path d="M1428.48 427.804H1235.24C1233.96 427.804 1232.92 428.842 1232.92 430.127V535.15C1232.92 536.436 1233.96 537.473 1235.24 537.473H1364.1V619.001C1364.1 620.287 1365.12 621.324 1366.41 621.324C1367.69 621.324 1368.71 620.287 1368.71 619.001V535.15C1368.71 533.865 1367.69 532.827 1366.41 532.827H1237.56V432.466H1428.48C1429.77 432.466 1430.8 431.428 1430.8 430.143C1430.8 428.857 1429.77 427.804 1428.48 427.804Z" fill="#38B000"/>
<path d="M290.741 621.34C292.026 621.34 293.063 620.302 293.063 619.017V430.127C293.063 428.842 292.026 427.804 290.741 427.804H54.5806C53.2955 427.804 52.2581 428.842 52.2581 430.127V535.15C52.2581 536.436 53.2955 537.473 54.5806 537.473H183.422V619.001C183.422 620.287 184.459 621.324 185.745 621.324C187.03 621.324 188.067 620.287 188.067 619.001V535.15C188.067 533.865 187.03 532.827 185.745 532.827H56.9032V432.466H288.418V619.017C288.418 620.302 289.455 621.34 290.741 621.34Z" fill="#38B000"/>
<path d="M1208.98 296.607H972.913C971.628 296.607 970.591 297.645 970.591 298.93V404.015C970.591 405.3 971.628 406.338 972.913 406.338H1101.74V535.135C1101.74 536.42 1102.78 537.458 1104.06 537.458H1208.97C1210.25 537.458 1211.29 536.42 1211.29 535.135V298.946C1211.3 297.66 1210.27 296.607 1208.98 296.607ZM1206.66 532.827H1106.4V404.03C1106.4 402.745 1105.36 401.707 1104.08 401.707H975.252V301.284H1206.66V532.827Z" fill="#38B000"/>
<path d="M553.084 621.34C554.369 621.34 555.406 620.302 555.406 619.017V561.417C555.406 560.132 554.369 559.094 553.084 559.094H317.001C315.716 559.094 314.679 560.132 314.679 561.417V619.017C314.679 620.302 315.716 621.34 317.001 621.34C318.286 621.34 319.324 620.302 319.324 619.017V563.756H550.761V619.017C550.761 620.302 551.799 621.34 553.084 621.34Z" fill="#38B000"/>
<path d="M1077.82 621.34C1079.1 621.34 1080.14 620.302 1080.14 619.017V430.127C1080.14 428.842 1079.1 427.804 1077.82 427.804H841.657C840.372 427.804 839.334 428.842 839.334 430.127V535.15C839.334 536.436 840.372 537.473 841.657 537.473H970.575V619.001C970.575 620.287 971.613 621.324 972.898 621.324C974.183 621.324 975.221 620.287 975.221 619.001V535.15C975.221 533.865 974.183 532.827 972.898 532.827H843.979V432.466H1075.48V619.017C1075.49 620.302 1076.53 621.34 1077.82 621.34Z" fill="#38B000"/>
<path d="M684.232 621.34C685.517 621.34 686.555 620.302 686.555 619.017V430.127C686.555 428.842 685.517 427.804 684.232 427.804H448.15C446.864 427.804 445.827 428.842 445.827 430.127V535.15C445.827 536.436 446.864 537.473 448.15 537.473H577.006V619.001C577.006 620.287 578.044 621.324 579.329 621.324C580.614 621.324 581.652 620.287 581.652 619.001V535.15C581.652 533.865 580.614 532.827 579.329 532.827H450.472V432.466H681.91V619.017C681.925 620.302 682.947 621.34 684.232 621.34Z" fill="#38B000"/>
<path d="M1428.48 38.9517C1429.77 38.9517 1430.8 37.9141 1430.8 36.6286C1430.8 35.3431 1429.77 34.3054 1428.48 34.3054H1235.24C1233.96 34.3054 1232.92 35.3431 1232.92 36.6286V141.481C1232.92 142.767 1233.96 143.804 1235.24 143.804H1364.1V272.756C1364.1 274.041 1365.12 275.079 1366.41 275.079H1428.48C1429.77 275.079 1430.8 274.041 1430.8 272.756C1430.8 271.47 1429.77 270.432 1428.48 270.432H1368.73V141.481C1368.73 140.196 1367.71 139.158 1366.42 139.158H1237.58V38.9672L1428.48 38.9517Z" fill="#38B000"/>
<path d="M1208.98 3.46924C1207.7 3.46924 1206.66 4.50692 1206.66 5.7924V139.127H1106.4V10.2684C1106.4 8.98288 1105.36 7.94521 1104.08 7.94521H975.252V5.7924C975.252 4.50692 974.214 3.46924 972.929 3.46924C971.644 3.46924 970.606 4.50692 970.606 5.7924V10.2684C970.606 11.5539 971.644 12.5915 972.929 12.5915H1101.75V141.45C1101.75 142.736 1102.79 143.773 1104.08 143.773H1208.98C1210.27 143.773 1211.3 142.736 1211.3 141.45V5.77689C1211.3 4.50689 1210.27 3.46924 1208.98 3.46924Z" fill="#38B000"/>
<path d="M185.745 275.079H290.741C292.026 275.079 293.063 274.041 293.063 272.756V36.6132C293.063 35.3277 292.026 34.29 290.741 34.29H54.5806C53.2955 34.29 52.2581 35.3277 52.2581 36.6132V141.466C52.2581 142.751 53.2955 143.789 54.5806 143.789H183.422V272.74C183.422 274.026 184.459 275.079 185.745 275.079ZM56.9032 139.127V38.9364H288.418V270.417H188.067V141.466C188.067 140.18 187.03 139.142 185.745 139.142L56.9032 139.127Z" fill="#38B000"/>
<path d="M319.324 10.2685C319.324 8.98301 318.286 7.94534 317.001 7.94534H188.067V5.79253C188.067 4.50704 187.03 3.46937 185.745 3.46937C184.459 3.46937 183.422 4.50704 183.422 5.79253V10.2685C183.422 11.554 184.459 12.5917 185.745 12.5917H314.679V141.45C314.679 142.736 315.716 143.773 317.001 143.773H421.905C423.19 143.773 424.227 142.736 424.227 141.45V5.77702C424.227 4.49153 423.19 3.45386 421.905 3.45386C420.619 3.45386 419.582 4.49153 419.582 5.77702V139.112H319.308L319.324 10.2685Z" fill="#38B000"/>
<path d="M56.9032 5.7924C56.9032 4.50692 55.8658 3.46924 54.5806 3.46924C53.2955 3.46924 52.2581 4.50692 52.2581 5.7924V10.2684C52.2581 11.5539 53.2955 12.5915 54.5806 12.5915H159.577C160.862 12.5915 161.899 11.5539 161.899 10.2684V5.7924C161.899 4.50692 160.862 3.46924 159.577 3.46924C158.292 3.46924 157.254 4.50692 157.254 5.7924V7.94521H56.9032V5.7924Z" fill="#38B000"/>
<path d="M579.329 275.079H684.232C685.517 275.079 686.555 274.041 686.555 272.756V36.6132C686.555 35.3277 685.517 34.29 684.232 34.29H448.15C446.864 34.29 445.827 35.3277 445.827 36.6132V141.466C445.827 142.751 446.864 143.789 448.15 143.789H577.006V272.74C577.006 274.026 578.044 275.079 579.329 275.079ZM450.472 139.127V38.9364H681.91V270.417H581.636V141.466C581.636 140.18 580.599 139.142 579.314 139.142L450.472 139.127Z" fill="#38B000"/>
<path d="M581.652 5.79253C581.652 4.50704 580.614 3.46937 579.329 3.46937C578.044 3.46937 577.006 4.50704 577.006 5.79253V10.2685C577.006 11.554 578.044 12.5917 579.329 12.5917H708.17V141.45C708.17 142.736 709.208 143.773 710.493 143.773H815.489C816.774 143.773 817.796 142.736 817.796 141.45V5.77702C817.796 4.49153 816.774 3.45386 815.489 3.45386C814.204 3.45386 813.182 4.49153 813.182 5.77702V139.112H712.815V10.253C712.815 8.96753 711.778 7.92983 710.493 7.92983H581.652V5.79253Z" fill="#38B000"/>
<path d="M16.1342 143.789H28.4129C29.698 143.789 30.7355 142.751 30.7355 141.466V5.7924C30.7355 4.50692 29.698 3.46924 28.4129 3.46924C27.1277 3.46924 26.0903 4.50692 26.0903 5.7924V139.127H16.1342C14.849 139.127 13.8116 140.165 13.8116 141.45C13.8116 142.736 14.849 143.789 16.1342 143.789Z" fill="#38B000"/>
<path d="M448.15 406.354H553.068C554.354 406.354 555.391 405.316 555.391 404.03V167.81C555.391 166.525 554.354 165.487 553.068 165.487H317.001C315.716 165.487 314.679 166.525 314.679 167.81V272.74C314.679 274.026 315.716 275.063 317.001 275.063H445.843V404.015C445.827 405.316 446.865 406.354 448.15 406.354ZM319.324 270.417V170.134H550.761V401.692H450.472V272.74C450.472 271.455 449.435 270.417 448.15 270.417H319.324Z" fill="#38B000"/>
<path d="M448.15 3.46924C446.864 3.46924 445.827 4.50692 445.827 5.7924V10.2684C445.827 11.5539 446.864 12.5915 448.15 12.5915H553.068C554.354 12.5915 555.391 11.5539 555.391 10.2684V5.7924C555.391 4.50692 554.354 3.46924 553.068 3.46924C551.783 3.46924 550.746 4.50692 550.746 5.7924V7.94521H450.457V5.7924C450.472 4.50692 449.435 3.46924 448.15 3.46924Z" fill="#38B000"/>
<path d="M314.679 535.166C314.679 536.451 315.716 537.489 317.001 537.489H421.905C423.19 537.489 424.227 536.451 424.227 535.166V298.946C424.227 297.66 423.19 296.622 421.905 296.622H185.745C184.459 296.622 183.422 297.66 183.422 298.946V404.03C183.422 405.316 184.459 406.354 185.745 406.354H314.679V535.166ZM188.067 401.707V301.284H419.582V532.842H319.308V404.046C319.308 402.76 318.271 401.723 316.986 401.723L188.067 401.707Z" fill="#38B000"/>
<path d="M708.17 535.166C708.17 536.451 709.208 537.489 710.493 537.489H815.489C816.774 537.489 817.796 536.451 817.796 535.166V298.946C817.796 297.66 816.774 296.622 815.489 296.622H579.329C578.044 296.622 577.006 297.66 577.006 298.946V404.03C577.006 405.316 578.044 406.354 579.329 406.354H708.17V535.166ZM581.652 401.707V301.284H813.182V532.842H712.815V404.046C712.815 402.76 711.778 401.723 710.493 401.723L581.652 401.707Z" fill="#38B000"/>
</g>
</svg>
