<svg width="288" height="48" viewBox="0 0 288 48" fill="none" xmlns="http://www.w3.org/2000/svg">
<g filter="url(#filter0_d_91_309)">
<path d="M26.2266 22.1836V14.3711H18.4141V25.3086H23.1016V22.1836H26.2266ZM7.28125 39.3711V36.4414H4.35156V0.308594H31.1094V3.23828H34.0391V3.43359H34.2344V6.36328H37.1641V6.55859H37.3594V9.48828H40.2891V33.1211H37.1641V36.2461H34.0391V39.3711H7.28125ZM28.668 34V30.875H31.793V27.75H34.918V9H31.793V5.875H28.668V2.75H6.79297V34H28.668ZM13.043 27.75V9H25.543V12.125H28.668V24.625H25.543V27.75H13.043Z" fill="#9EF01A"/>
<path d="M45.1719 39.3711V36.4414H42.2422V0.308594H72.125V3.23828H75.0547V14.3711H65.875V15.7383H68.8047V25.3086H72.125V28.2383H75.0547V39.3711H45.1719ZM69.6836 34V27.75H50.9336V21.5H63.4336V15.25H50.9336V9H69.6836V2.75H44.6836V34H69.6836Z" fill="#9EF01A"/>
<path d="M79.9375 39.3711V36.4414H77.0078V0.308594H103.766V3.23828H106.695V3.43359H106.891V6.36328H109.82V20.6211H106.891V21.9883H109.82V36.2461H106.695V39.3711H79.9375ZM101.324 34V30.875H104.449V21.5H101.324V15.25H104.449V5.875H101.324V2.75H79.4492V34H101.324ZM85.6992 15.25V9H98.1992V15.25H85.6992ZM85.6992 27.75V21.5H98.1992V27.75H85.6992Z" fill="#9EF01A"/>
<path d="M124.078 39.3711V36.4414H121.148V14.3711H114.703V11.4414H111.773V0.308594H141.656V3.23828H144.586V14.3711H135.211V39.3711H124.078ZM129.84 34V9H139.215V2.75H114.215V9H123.59V34H129.84Z" fill="#9EF01A"/>
<path d="M149.469 39.3711V36.4414H146.539V0.308594H157.672V3.23828H160.602V25.3086H176.422V28.2383H179.352V39.3711H149.469ZM173.98 34V27.75H155.23V2.75H148.98V34H173.98Z" fill="#9EF01A"/>
<path d="M184.234 39.3711V36.4414H181.305V0.308594H211.188V3.23828H214.117V14.3711H204.938V15.7383H207.867V25.3086H211.188V28.2383H214.117V39.3711H184.234ZM208.746 34V27.75H189.996V21.5H202.496V15.25H189.996V9H208.746V2.75H183.746V34H208.746Z" fill="#9EF01A"/>
<path d="M222.125 39.3711V36.4414H219.195V36.2461H219V33.3164H216.07V22.1836H219V20.8164H216.07V3.43359H219.195V0.308594H242.828V3.23828H245.758V3.43359H245.953V6.36328H248.883V17.4961H245.953V18.8633H248.883V36.2461H245.758V39.3711H222.125ZM240.387 34V30.875H243.512V18.375H240.387V15.25H224.762V9H237.262V12.125H243.512V5.875H240.387V2.75H221.637V5.875H218.512V18.375H221.637V21.5H237.262V27.75H224.762V24.625H218.512V30.875H221.637V34H240.387Z" fill="#9EF01A"/>
<path d="M256.891 39.3711V36.4414H253.961V36.2461H253.766V33.3164H250.836V22.1836H253.766V20.8164H250.836V3.43359H253.961V0.308594H277.594V3.23828H280.523V3.43359H280.719V6.36328H283.648V17.4961H280.719V18.8633H283.648V36.2461H280.523V39.3711H256.891ZM275.152 34V30.875H278.277V18.375H275.152V15.25H259.527V9H272.027V12.125H278.277V5.875H275.152V2.75H256.402V5.875H253.277V18.375H256.402V21.5H272.027V27.75H259.527V24.625H253.277V30.875H256.402V34H275.152Z" fill="#9EF01A"/>
</g>
<defs>
<filter id="filter0_d_91_309" x="0.351562" y="0.308594" width="287.297" height="47.0625" filterUnits="userSpaceOnUse" color-interpolation-filters="sRGB">
<feFlood flood-opacity="0" result="BackgroundImageFix"/>
<feColorMatrix in="SourceAlpha" type="matrix" values="0 0 0 0 0 0 0 0 0 0 0 0 0 0 0 0 0 0 127 0" result="hardAlpha"/>
<feOffset dy="4"/>
<feGaussianBlur stdDeviation="2"/>
<feComposite in2="hardAlpha" operator="out"/>
<feColorMatrix type="matrix" values="0 0 0 0 0 0 0 0 0 0 0 0 0 0 0 0 0 0 0.25 0"/>
<feBlend mode="normal" in2="BackgroundImageFix" result="effect1_dropShadow_91_309"/>
<feBlend mode="normal" in="SourceGraphic" in2="effect1_dropShadow_91_309" result="shape"/>
</filter>
</defs>
</svg>
